# xmcd
#
# Track frame offsets:
#	150
#	13416
#	30846
#	42686
#	54948
#	68751
#	81747
#	93210
#	115102
#	138766
#	156753
#	178808
#	188417
#
# Disc length: 2706 seconds
#
# Revision: 1
# Processed by: cddbd v1.4PL0 Copyright (c) Steve Scherf et al.
# Submitted via: audiograbber 1.81.03
#
DISCID=a40a900d
DTITLE=Soulfinger - Soultrain
DYEAR=2001
DGENRE=Soul
TTITLE0=See Saw
TTITLE1=I Take What I Want
TTITLE2=Respect
TTITLE3=Don't Fight It
TTITLE4=Natural Woman
TTITLE5=I Can't Stand The Rain
TTITLE6=Hold On I'm Coming
TTITLE7=Funky Broadway
TTITLE8=How Do You Stop
TTITLE9=When A Man Loves A Woman
TTITLE10=Proud Mary
TTITLE11=Sweet Soul Music
TTITLE12=It's A Man's World
EXTD=local Cover-Band from Germany - Bergstrasse\n\nGreetings from Oliver
EXTT0=
EXTT1=
EXTT2=
EXTT3=
EXTT4=
EXTT5=
EXTT6=
EXTT7=
EXTT8=
EXTT9=
EXTT10=
EXTT11=
EXTT12=
PLAYORDER=
